<svg width="224" height="224" viewBox="0 0 224 224" fill="none" xmlns="http://www.w3.org/2000/svg">
<g id="user picture">
<rect x="1" y="1" width="222" height="222" stroke="#8F8F8F" stroke-width="2"/>
<path id="Vector" fill-rule="evenodd" clip-rule="evenodd" d="M112.2 95C123.021 95 133.398 91.4179 141.05 85.0416C148.701 78.6654 153 70.0174 153 61C153 51.9826 148.701 43.3346 141.05 36.9584C133.398 30.5821 123.021 27 112.2 27C101.379 27 91.0015 30.5821 83.35 36.9584C75.6986 43.3346 71.4 51.9826 71.4 61C71.4 70.0174 75.6986 78.6654 83.35 85.0416C91.0015 91.4179 101.379 95 112.2 95ZM17 197C17 186.582 19.4624 176.266 24.2467 166.64C29.0309 157.015 36.0433 148.27 44.8834 140.903C53.7236 133.536 64.2183 127.692 75.7685 123.706C87.3187 119.719 99.6982 117.667 112.2 117.667C124.702 117.667 137.081 119.719 148.631 123.706C160.182 127.692 170.676 133.536 179.517 140.903C188.357 148.27 195.369 157.015 200.153 166.64C204.938 176.266 207.4 186.582 207.4 197H17Z" fill="#8F8F8F"/>
</g>
</svg>
